<mxfile host="app.diagrams.net" modified="2022-08-16T06:49:47.960Z" agent="5.0 (Windows NT 10.0; Win64; x64) AppleWebKit/537.36 (KHTML, like Gecko) Chrome/103.0.0.0 Safari/537.36" etag="NesUeLUPKk4pf8VKEhCI" version="20.1.2" type="github">
  <diagram id="u93mlC56obUH3pNXRDEQ" name="ページ1">
    <mxGraphModel dx="650" dy="403" grid="1" gridSize="10" guides="1" tooltips="1" connect="1" arrows="1" fold="1" page="1" pageScale="1" pageWidth="827" pageHeight="1169" math="0" shadow="0">
      <root>
        <mxCell id="0" />
        <mxCell id="1" parent="0" />
        <mxCell id="LFyK3puGttuThlZaRj4D-8" value="SPRESENSEメインボード" style="shape=image;verticalLabelPosition=bottom;labelBackgroundColor=default;verticalAlign=top;aspect=fixed;imageAspect=0;image=https://docid81hrs3j1.cloudfront.net/imagecontent/image-1531213638783.jpg;" vertex="1" parent="1">
          <mxGeometry x="411.14" y="170" width="44.72" height="100.67" as="geometry" />
        </mxCell>
        <mxCell id="LFyK3puGttuThlZaRj4D-17" value="画像データ" style="edgeStyle=orthogonalEdgeStyle;rounded=0;orthogonalLoop=1;jettySize=auto;html=1;exitX=0;exitY=0.5;exitDx=0;exitDy=0;entryX=1;entryY=0.5;entryDx=0;entryDy=0;" edge="1" parent="1" source="LFyK3puGttuThlZaRj4D-9" target="LFyK3puGttuThlZaRj4D-12">
          <mxGeometry relative="1" as="geometry" />
        </mxCell>
        <mxCell id="LFyK3puGttuThlZaRj4D-9" value="SPRESENSEカメラボード" style="shape=image;verticalLabelPosition=bottom;labelBackgroundColor=default;verticalAlign=top;aspect=fixed;imageAspect=0;image=https://d2air1d4eqhwg2.cloudfront.net/images/4119/500x500/fd42b944-da21-4608-80d0-69b8b5ecf45b.jpg;" vertex="1" parent="1">
          <mxGeometry x="600" y="220.67000000000002" width="50" height="50" as="geometry" />
        </mxCell>
        <mxCell id="LFyK3puGttuThlZaRj4D-12" value="画像処理" style="rounded=0;whiteSpace=wrap;html=1;" vertex="1" parent="1">
          <mxGeometry x="490" y="110.86" width="70" height="31.73" as="geometry" />
        </mxCell>
        <mxCell id="LFyK3puGttuThlZaRj4D-13" value="接触点推定" style="rounded=0;whiteSpace=wrap;html=1;" vertex="1" parent="1">
          <mxGeometry x="310" y="110.86" width="70" height="31.73" as="geometry" />
        </mxCell>
        <mxCell id="LFyK3puGttuThlZaRj4D-14" value="接触判定" style="rounded=0;whiteSpace=wrap;html=1;" vertex="1" parent="1">
          <mxGeometry x="398.5" y="110.86" width="70" height="31.73" as="geometry" />
        </mxCell>
        <mxCell id="LFyK3puGttuThlZaRj4D-20" value="" style="endArrow=classic;html=1;rounded=0;dashed=1;exitX=0;exitY=0.5;exitDx=0;exitDy=0;entryX=1;entryY=0.5;entryDx=0;entryDy=0;" edge="1" parent="1" source="LFyK3puGttuThlZaRj4D-12" target="LFyK3puGttuThlZaRj4D-14">
          <mxGeometry width="50" height="50" relative="1" as="geometry">
            <mxPoint x="500" y="210" as="sourcePoint" />
            <mxPoint x="490" y="170" as="targetPoint" />
          </mxGeometry>
        </mxCell>
        <mxCell id="LFyK3puGttuThlZaRj4D-21" value="" style="endArrow=classic;html=1;rounded=0;dashed=1;entryX=1;entryY=0.5;entryDx=0;entryDy=0;exitX=0;exitY=0.5;exitDx=0;exitDy=0;" edge="1" parent="1" source="LFyK3puGttuThlZaRj4D-14" target="LFyK3puGttuThlZaRj4D-13">
          <mxGeometry width="50" height="50" relative="1" as="geometry">
            <mxPoint x="560" y="230" as="sourcePoint" />
            <mxPoint x="550" y="190" as="targetPoint" />
          </mxGeometry>
        </mxCell>
        <mxCell id="LFyK3puGttuThlZaRj4D-23" value="" style="endArrow=none;html=1;rounded=0;exitX=0.5;exitY=1;exitDx=0;exitDy=0;entryX=0.5;entryY=0;entryDx=0;entryDy=0;" edge="1" parent="1" source="LFyK3puGttuThlZaRj4D-13" target="LFyK3puGttuThlZaRj4D-8">
          <mxGeometry width="50" height="50" relative="1" as="geometry">
            <mxPoint x="380" y="260" as="sourcePoint" />
            <mxPoint x="430" y="210" as="targetPoint" />
          </mxGeometry>
        </mxCell>
        <mxCell id="LFyK3puGttuThlZaRj4D-24" value="" style="endArrow=none;html=1;rounded=0;exitX=0.5;exitY=1;exitDx=0;exitDy=0;entryX=0.5;entryY=0;entryDx=0;entryDy=0;" edge="1" parent="1" source="LFyK3puGttuThlZaRj4D-14" target="LFyK3puGttuThlZaRj4D-8">
          <mxGeometry width="50" height="50" relative="1" as="geometry">
            <mxPoint x="380" y="260" as="sourcePoint" />
            <mxPoint x="430" y="210" as="targetPoint" />
          </mxGeometry>
        </mxCell>
        <mxCell id="LFyK3puGttuThlZaRj4D-25" value="" style="endArrow=none;html=1;rounded=0;exitX=0.5;exitY=1;exitDx=0;exitDy=0;entryX=0.5;entryY=0;entryDx=0;entryDy=0;" edge="1" parent="1" source="LFyK3puGttuThlZaRj4D-12" target="LFyK3puGttuThlZaRj4D-8">
          <mxGeometry width="50" height="50" relative="1" as="geometry">
            <mxPoint x="380" y="260" as="sourcePoint" />
            <mxPoint x="430" y="210" as="targetPoint" />
          </mxGeometry>
        </mxCell>
        <mxCell id="LFyK3puGttuThlZaRj4D-26" value="接触点座標" style="endArrow=classic;html=1;rounded=0;exitX=0;exitY=0.5;exitDx=0;exitDy=0;entryX=0;entryY=0.5;entryDx=0;entryDy=0;" edge="1" parent="1" source="LFyK3puGttuThlZaRj4D-13" target="LFyK3puGttuThlZaRj4D-32">
          <mxGeometry width="50" height="50" relative="1" as="geometry">
            <mxPoint x="380" y="260" as="sourcePoint" />
            <mxPoint x="220" y="127" as="targetPoint" />
            <Array as="points">
              <mxPoint x="290" y="127" />
              <mxPoint x="290" y="220" />
              <mxPoint x="290" y="326" />
            </Array>
          </mxGeometry>
        </mxCell>
        <mxCell id="LFyK3puGttuThlZaRj4D-29" value="" style="shape=image;verticalLabelPosition=bottom;labelBackgroundColor=default;verticalAlign=top;aspect=fixed;imageAspect=0;image=https://hameefun.jp/files/2016/08/125423-e1472532413874.jpg;" vertex="1" parent="1">
          <mxGeometry x="260" y="190" width="66.12" height="18.31" as="geometry" />
        </mxCell>
        <mxCell id="LFyK3puGttuThlZaRj4D-32" value="接触点から描写を再現" style="rounded=0;whiteSpace=wrap;html=1;" vertex="1" parent="1">
          <mxGeometry x="310" y="310.86" width="140" height="30" as="geometry" />
        </mxCell>
        <mxCell id="LFyK3puGttuThlZaRj4D-34" value="PC" style="fontColor=#0066CC;verticalAlign=top;verticalLabelPosition=bottom;labelPosition=center;align=center;html=1;outlineConnect=0;fillColor=#CCCCCC;strokeColor=#6881B3;gradientColor=none;gradientDirection=north;strokeWidth=2;shape=mxgraph.networks.pc;" vertex="1" parent="1">
          <mxGeometry x="345" y="350.43" width="70" height="50" as="geometry" />
        </mxCell>
        <mxCell id="LFyK3puGttuThlZaRj4D-36" value="" style="endArrow=none;html=1;rounded=0;entryX=0.5;entryY=1;entryDx=0;entryDy=0;" edge="1" parent="1" source="LFyK3puGttuThlZaRj4D-34" target="LFyK3puGttuThlZaRj4D-32">
          <mxGeometry width="50" height="50" relative="1" as="geometry">
            <mxPoint x="360" y="390" as="sourcePoint" />
            <mxPoint x="390" y="350" as="targetPoint" />
          </mxGeometry>
        </mxCell>
        <mxCell id="LFyK3puGttuThlZaRj4D-38" value="反映" style="rounded=0;whiteSpace=wrap;html=1;" vertex="1" parent="1">
          <mxGeometry x="560" y="310" width="60" height="30.86" as="geometry" />
        </mxCell>
        <mxCell id="LFyK3puGttuThlZaRj4D-41" value="描写データ" style="endArrow=classic;html=1;rounded=0;exitX=1;exitY=0.5;exitDx=0;exitDy=0;entryX=0;entryY=0.5;entryDx=0;entryDy=0;" edge="1" parent="1" source="LFyK3puGttuThlZaRj4D-32" target="LFyK3puGttuThlZaRj4D-38">
          <mxGeometry width="50" height="50" relative="1" as="geometry">
            <mxPoint x="360" y="250" as="sourcePoint" />
            <mxPoint x="410" y="200" as="targetPoint" />
          </mxGeometry>
        </mxCell>
        <mxCell id="LFyK3puGttuThlZaRj4D-45" value="" style="endArrow=none;html=1;rounded=0;entryX=0.5;entryY=1;entryDx=0;entryDy=0;exitX=0.5;exitY=0;exitDx=0;exitDy=0;" edge="1" parent="1" source="LFyK3puGttuThlZaRj4D-49" target="LFyK3puGttuThlZaRj4D-38">
          <mxGeometry width="50" height="50" relative="1" as="geometry">
            <mxPoint x="530" y="360" as="sourcePoint" />
            <mxPoint x="440" y="270" as="targetPoint" />
          </mxGeometry>
        </mxCell>
        <mxCell id="LFyK3puGttuThlZaRj4D-49" value="ディスプレイやプロジェクターなど" style="text;html=1;strokeColor=none;fillColor=none;align=center;verticalAlign=middle;whiteSpace=wrap;rounded=0;" vertex="1" parent="1">
          <mxGeometry x="485" y="370.43" width="210" height="30" as="geometry" />
        </mxCell>
        <mxCell id="LFyK3puGttuThlZaRj4D-50" value="&lt;span style=&quot;font-size: 11px;&quot;&gt;Wi-Fiや&lt;/span&gt;&lt;span style=&quot;font-size: 11px;&quot;&gt;HDMIなど&lt;/span&gt;" style="text;html=1;strokeColor=none;fillColor=none;align=center;verticalAlign=middle;whiteSpace=wrap;rounded=0;labelBackgroundColor=none;" vertex="1" parent="1">
          <mxGeometry x="460" y="330" width="100" height="30" as="geometry" />
        </mxCell>
      </root>
    </mxGraphModel>
  </diagram>
</mxfile>
